HIERARCHY
ROOT Hips
{
	OFFSET 0.000000 0.000000 0.000000 
	CHANNELS 6 Xposition Yposition Zposition Zrotation Yrotation Xrotation
	JOINT LeftUpLeg
	{
		OFFSET 1.363060 -1.794630 0.839290 
		CHANNELS 3 Zrotation Yrotation Xrotation
		JOINT LeftLeg
		{
			OFFSET 2.448110 -6.726130 0.000000 
			CHANNELS 3 Zrotation Yrotation Xrotation
			JOINT LeftFoot
			{
				OFFSET 2.562200 -7.039590 0.000000 
				CHANNELS 3 Zrotation Yrotation Xrotation
				JOINT LeftToeBase
				{
					OFFSET 0.157640 -0.433110 2.322550 
					CHANNELS 3 Zrotation Yrotation Xrotation
					End Site
					{
						OFFSET 0.000000 0.000000 0.000000 
					}
				}
			}
		}
	}
	JOINT RightUpLeg
	{
		OFFSET -1.305520 -1.794630 0.839290 
		CHANNELS 3 Zrotation Yrotation Xrotation
		JOINT RightLeg
		{
			OFFSET -2.542530 -6.985550 0.000000 
			CHANNELS 3 Zrotation Yrotation Xrotation
			JOINT RightFoot
			{
				OFFSET -2.568260 -7.056230 0.000000 
				CHANNELS 3 Zrotation Yrotation Xrotation
				JOINT RightToeBase
				{
					OFFSET -0.164730 -0.452590 2.363150 
					CHANNELS 3 Zrotation Yrotation Xrotation
					End Site
					{
						OFFSET 0.000000 0.000000 0.000000 
					}
				}
			}
		}
	}
	JOINT Spine
	{
		OFFSET 0.028270 2.035590 -0.193380 
		CHANNELS 3 Zrotation Yrotation Xrotation
		JOINT Spine1
		{
			OFFSET 0.056720 2.048850 -0.042750 
			CHANNELS 3 Zrotation Yrotation Xrotation
			JOINT Neck1
			{
				OFFSET -0.054170 1.746240 0.172020 
				CHANNELS 3 Zrotation Yrotation Xrotation
				JOINT Head
				{
					OFFSET 0.104070 1.761360 -0.123970 
					CHANNELS 3 Zrotation Yrotation Xrotation
					End Site
					{
						OFFSET 0.000000 0.000000 0.000000 
					}
				}
			}
			JOINT LeftArm
			{
				OFFSET 3.362410 1.200890 -0.311210 
				CHANNELS 3 Zrotation Yrotation Xrotation
				JOINT LeftForeArm
				{
					OFFSET 4.983000 -0.000000 -0.000000 
					CHANNELS 3 Zrotation Yrotation Xrotation
					JOINT LeftHand
					{
						OFFSET 3.483560 -0.000000 -0.000000 
						CHANNELS 3 Zrotation Yrotation Xrotation
						JOINT LeftHandIndex1
						{
							OFFSET 0.715260 -0.000000 -0.000000 
							CHANNELS 3 Zrotation Yrotation Xrotation
							End Site
							{
								OFFSET 0.000000 0.000000 0.000000 
							}
						}
					}
				}
			}
			JOINT RightArm
			{
				OFFSET -3.136600 1.374050 -0.404650 
				CHANNELS 3 Zrotation Yrotation Xrotation
				JOINT RightForeArm
				{
					OFFSET -5.241900 -0.000000 -0.000000 
					CHANNELS 3 Zrotation Yrotation Xrotation
					JOINT RightHand
					{
						OFFSET -3.444170 -0.000000 -0.000000 
						CHANNELS 3 Zrotation Yrotation Xrotation
						JOINT RightHandIndex1
						{
							OFFSET -0.622530 -0.000000 -0.000000 
							CHANNELS 3 Zrotation Yrotation Xrotation
							End Site
							{
								OFFSET 0.000000 0.000000 0.000000 
							}
						}
					}
				}
			}
		}
	}
}
MOTION
Frames: 9
Frame Time: 0.041667
8.597422 17.320447 -40.776980 1.522425 -3.956828 7.233806 -19.192865 -0.883265 -12.049985 -1.725473 8.460494 24.227760 3.500857 -7.807143 5.548084 0.028600 1.091500 3.000700 14.262613 6.798724 -30.483000 -1.500446 -15.358431 38.983313 -2.537942 3.046772 4.119032 -0.341100 3.753000 -10.382800 1.051362 0.707970 -3.892523 -0.009077 -0.069102 -1.927693 6.033483 0.459927 13.179344 1.408100 0.523100 6.176700 -81.436403 -18.175592 42.401763 20.877903 -26.419504 -6.899218 -0.497660 1.362365 -15.540439 -7.125000 0.000000 0.000000 89.794642 -19.323917 13.315168 -8.911262 19.736291 -3.270614 2.326692 0.868398 9.296268 7.125000 0.000000 0.000000 
8.604299 17.317741 -40.585644 1.473186 -3.252864 7.126118 -19.060788 -1.032899 -10.995795 -1.865434 8.106793 23.468366 3.657675 -8.459819 6.220122 0.095000 1.987500 5.471200 14.038762 6.925220 -31.000028 -1.094724 -15.082718 37.702673 -2.508914 2.829768 4.815392 -0.356600 3.836200 -10.616300 1.105211 0.296618 -3.880169 -0.038650 -0.310349 -1.775384 5.887159 0.603854 13.309816 1.262800 0.608500 6.257300 -81.038174 -19.113731 43.019739 21.563210 -26.982929 -7.209775 -0.452379 1.336304 -15.625392 -7.125000 0.000000 0.000000 89.814133 -19.381721 12.577382 -8.807054 19.603851 -3.235079 2.316711 0.852342 10.115464 7.125000 0.000000 0.000000 
8.608358 17.312442 -40.393630 1.700602 -2.547420 7.010076 -19.224970 -0.989307 -10.031884 -1.978721 7.792735 22.796334 3.803180 -9.131948 6.575525 0.135700 2.374300 6.541100 13.554519 6.937577 -31.524783 -0.688144 -14.765041 36.330499 -2.409544 2.378260 5.777508 -0.443800 4.274400 -11.849900 1.160816 -0.146296 -3.899850 0.237224 -0.550395 -1.821175 5.967684 0.709287 13.412252 1.373800 0.646100 6.300300 -80.805159 -19.925535 43.450867 22.155536 -27.470648 -7.515361 -0.411734 1.345432 -15.825428 -7.125000 0.000000 0.000000 89.651474 -19.685872 12.641161 -9.035040 19.844888 -3.248046 2.241346 0.901635 9.317746 7.125000 0.000000 0.000000 
8.610613 17.313118 -40.201278 2.062187 -1.968044 6.901448 -19.576547 -0.735078 -9.219977 -2.043227 7.553659 22.278129 3.831758 -9.335761 6.370261 0.050200 1.446300 3.977800 12.904774 6.992538 -31.955289 -0.252874 -14.376479 34.788086 -2.237885 1.695825 7.142020 -0.434300 4.228900 -11.721500 1.164589 -0.393175 -3.907668 0.404967 -0.689217 -1.860592 6.070442 0.675572 13.336307 1.485900 0.615400 6.204000 -80.356479 -20.731129 44.314653 22.815593 -28.012646 -7.854984 -0.391858 1.349552 -16.527488 -7.125000 0.000000 0.000000 89.726334 -19.982417 12.025391 -9.117565 19.964485 -3.309990 2.231641 0.981764 8.902082 7.125000 0.000000 0.000000 
8.608471 17.315486 -40.010280 2.101432 -1.442196 6.839518 -19.491045 -0.548916 -8.355016 -2.211371 7.105851 21.247474 3.831477 -9.412755 7.126345 0.052000 1.471800 4.048100 12.546719 7.229923 -32.419198 0.123220 -14.068394 33.466947 -1.991800 0.861064 8.233892 -0.377700 3.946900 -10.927300 1.178923 -0.577849 -3.878530 0.419947 -0.809102 -1.719678 5.974773 0.524954 13.115201 1.382700 0.543000 6.014900 -79.712112 -21.515765 45.332449 23.691090 -28.745809 -8.291645 -0.361380 1.319488 -17.314357 -7.125000 0.000000 0.000000 90.032439 -20.233955 12.495868 -9.105297 19.978198 -3.275672 2.249195 0.891411 7.249096 7.125000 0.000000 0.000000 
8.603623 17.299475 -39.821762 1.254811 -0.722069 7.036662 -18.233339 -0.875871 -7.812898 -2.434510 6.596783 20.209320 4.156044 -10.753616 9.895358 0.730200 5.459700 15.224600 13.012568 7.547607 -33.134986 0.535398 -13.771709 32.149942 -1.701873 -0.006111 8.740325 -0.276500 3.382200 -9.344800 1.309214 -0.944722 -3.893058 0.449787 -1.029545 -1.588824 5.930232 0.632602 13.181401 1.311200 0.608100 6.041500 -79.475293 -22.086186 45.568762 24.636110 -29.550207 -8.795742 -0.312856 1.278901 -17.401253 -7.125000 0.000000 0.000000 89.862103 -20.467661 13.211636 -8.992144 19.831810 -3.156386 2.226017 0.775284 6.141360 7.125000 0.000000 0.000000 
8.618393 17.246483 -39.580138 2.263785 -0.249960 6.512638 -19.296203 -0.948025 -6.260788 -2.676074 6.099610 19.264941 4.405108 -13.054679 13.125580 2.773700 10.319300 30.017100 11.863057 6.961634 -33.191432 0.835361 -13.342613 30.815002 -1.876785 0.059180 10.308099 -0.174200 2.688500 -7.412600 1.266768 -1.252887 -3.817707 0.605735 -1.202636 -1.258799 5.851207 0.649995 13.074720 1.315600 0.594500 5.872400 -79.633684 -22.633565 45.397968 25.331975 -30.142237 -9.189004 -0.256951 1.248936 -16.871022 -7.125000 0.000000 0.000000 89.628950 -20.737103 13.126131 -9.094824 19.997716 -3.203532 2.195759 0.899143 5.957558 7.125000 0.000000 0.000000 
8.612643 17.260802 -39.382374 2.827395 0.094966 6.417229 -20.079498 0.664557 -5.226338 -2.569847 5.866615 18.598578 4.107478 -11.335902 9.356445 0.329400 3.688600 10.202200 11.059896 7.096737 -33.387048 1.201680 -12.901989 29.277859 -1.804657 -0.499458 11.820553 -0.107900 2.118400 -5.832900 1.244080 -1.355220 -3.783457 0.742013 -1.282067 -1.049640 5.960403 0.623861 13.150433 1.349300 0.595700 5.890100 -79.587356 -23.480856 45.436319 25.918297 -30.567806 -9.497027 -0.201403 1.225765 -16.423237 -7.125000 0.000000 0.000000 89.836199 -20.860407 12.537665 -9.235479 20.168345 -3.268082 2.173685 0.967795 6.062703 7.125000 0.000000 0.000000 
8.603172 17.237914 -39.206371 3.074186 0.576719 6.502524 -20.252754 1.227335 -4.209330 -2.664382 5.404102 17.530547 4.024501 -11.072161 9.137716 0.113800 2.175500 5.990800 10.340176 7.706084 -33.786902 1.530604 -12.558001 27.853447 -1.588475 -1.391994 12.908120 -0.098300 2.022100 -5.566800 1.268611 -1.555606 -3.796205 0.957724 -1.406632 -1.051100 6.009704 0.615251 13.172408 1.329400 0.605000 5.915700 -79.276424 -24.210192 45.631136 26.518054 -30.994417 -9.817010 -0.138076 1.209790 -16.419630 -7.125000 0.000000 0.000000 90.034816 -21.078672 12.393002 -9.038407 19.884121 -3.146914 2.196681 0.766951 6.309299 7.125000 0.000000 0.000000 
